<svg width="64" height="58" viewBox="0 0 64 58" fill="none" xmlns="http://www.w3.org/2000/svg">
<path d="M44.1069 57.9263H8.68012C3.88616 57.9263 0 54.1558 0 49.505C0 44.8533 3.88566 41.0817 8.68012 41.0792L28.7541 41.0696C30.3765 41.0688 31.9705 41.4828 33.3754 42.2699C34.7803 43.057 35.9466 44.1895 36.7568 45.5532L44.1071 57.9263H44.1069Z" fill="#0096D2" fill-opacity="0.8"/>
<path d="M6.72852 35.0193L24.3186 4.34102C26.6989 0.18981 31.9705 -1.23248 36.0933 1.16432C40.2167 3.56136 41.6307 8.86976 39.2523 13.023L29.2936 30.4112C28.4888 31.8165 27.3304 32.9834 25.9351 33.7943C24.5397 34.6053 22.9568 35.0317 21.3457 35.0305L6.72852 35.0193V35.0193Z" fill="#0096D2" fill-opacity="0.8"/>
<path d="M45.3867 14.0465L62.8519 44.903C65.2155 49.0786 63.8128 54.4175 59.7192 56.8285C55.6254 59.2395 50.39 57.8099 48.0247 53.6353L38.1193 36.1562C37.3188 34.7434 36.8975 33.1405 36.8977 31.5088C36.8979 29.8771 37.3197 28.2743 38.1205 26.8618L45.3867 14.0468V14.0465Z" fill="#0096D2" fill-opacity="0.8"/>
<ellipse cx="32.5109" cy="36.0967" rx="3.88495" ry="3.89681" fill="white"/>
</svg>
